# xmcd
#
# Track frame offsets:
#	150
#	15540
#	29700
#	44746
#	58966
#	73697
#	87171
#	101802
#	116123
#	132345
#	147977
#	163197
#	178589
#	192252
#	207216
#	221409
#	235796
#	250432
#	265208
#	279238
#	294118
#	307729
#	323039
#	337820
#
# Disc length: 4681 seconds
#
# Revision: 0
# Processed by: cddbd v1.5.2PL0 Copyright (c) Steve Scherf et al.
# Submitted via: EasyCDDAExtractor 16.0.6.1
#
DISCID=6b124718
DTITLE=Various Artist - Η μεγάλη του ρεμπέτικου σχολή 6      
DYEAR=1900
DGENRE=Ρεμπέτικη
TTITLE0=Βαμβακάρης Μάρκος - Ο Συνάχης [Μ. Βαμβακάρη]
TTITLE1=Αμπατζή Ρίτα - Δώδεκα χρονών κορίτσι [Σωτ. Γαβαλά]
TTITLE2=Περπινιάδης Στελλάκης - Μπίντα Γιάλλα [Π. Τούντα]
TTITLE3=Βαμβακάρης Μάρκος-Χατζηχρήστος Απόστολος - Μιά όμορφη μελαχροινή [Μ. Β
TTITLE3=αμβακάρη]
TTITLE4=Μπάτης Γιώργος - Ο μπουφετζής [Γ. Μπάτη]
TTITLE5=Διαμαντίδης Αντώνης ή Νταλγκάς - Άϊντε να πεθάνης [παραδοσιακό]
TTITLE6=Εσκενάζυ Ρόζα - Μοντέρνα χήρα [Π. Τούντα]
TTITLE7=Διαμαντίδης Αντώνης ή Νταλγκάς - Έλα στ' Ανάπλι [παραδοσιακό]
TTITLE8=Βαμβακάρης Μάρκος - Κάτω 'κεί στη Δραπετσώνα [Μίν. Μάτσα-Μ. Βαμβακάρη]
TTITLE9=Περπινιάδης Στελλάκης - Σε γέλασα [Ν. Κοσμά-Σ. Περπινιάδη]
TTITLE10=Περπινιάδης Στελλάκης - Ο Αντώνης ο βαρκάρης [Π. Οικονόμου-Σ. Περιστέ
TTITLE10=ρη]
TTITLE11=Εσκενάζυ Ρόζα - Γκαζέλ Νιχαβέντ (Έβγα ψυχή απ' το κορμί)
TTITLE12=Ρούκουνας Κώστας ή Σαμιωτάκης - Ο γλετζές [Σ. Παντελίδη]
TTITLE13=Εσκενάζυ Ρόζα - Η γλετζού η Σμυρνιά [Δ. Λαδόπουλου]
TTITLE14=Κορίνα Θεσσαλονικιά-Βαμβακάρης Μάρκος - Δεν παύει πια το στόμα σου [Μ
TTITLE14=Βαμβακάρη]
TTITLE15=Ρούκουνας Κώστας ή Σαμιωτάκης - Στη Δραπετσώνα [Π. Τούντα]
TTITLE16=Διαμαντίδης Αντώνης ή Νταλγκάς - Αθάνατο ρωμαίϊκο [Ιερόθεου Σχίζα]
TTITLE17=Μπάτης Γιώργος - Γκαμηλιέρικο [Γ. Μπάτη]
TTITLE18=Διαμαντίδης Αντώνης ή Νταλγκάς - Γκρινιάρα [Κοντόπουλου-Πολιανίτη]
TTITLE19=Βαμβακάρης Μάρκος-Χατζηχρήστος Απόστολος - Κούλα Φραγκοσυριανή [Μ. Βα
TTITLE19=μβακάρη]
TTITLE20=Νούρος Κώστας - Στην Αθήνα [Π. Τούντα]
TTITLE21=Βαμβακάρης Μάρκος-Παγιουμτζής Στράτος - Στης νύχτας το σκοτάδι [Σ. Πα
TTITLE21=γιουμτζή]
TTITLE22=Παγιουμτζής Στράτος - Τα σωφεράκια [Σ. Παγιουμτζή]
TTITLE23=Διαμαντίδης Αντώνης ή Νταλγκάς - Οι μπαγλαμάδες [παραδοσιακό Σμύρνης]
EXTD=
EXTT0=
EXTT1=
EXTT2=
EXTT3=
EXTT4=
EXTT5=
EXTT6=
EXTT7=
EXTT8=
EXTT9=
EXTT10=
EXTT11=
EXTT12=
EXTT13=
EXTT14=
EXTT15=
EXTT16=
EXTT17=
EXTT18=
EXTT19=
EXTT20=
EXTT21=
EXTT22=
EXTT23=
PLAYORDER=
